<?xml version="1.0" standalone="no"?>
<!DOCTYPE svg PUBLIC "-//W3C//DTD SVG 20010904//EN"
 "http://www.w3.org/TR/2001/REC-SVG-20010904/DTD/svg10.dtd">
<svg version="1.0" xmlns="http://www.w3.org/2000/svg"
 width="24" height="24" viewBox="0 0 512.000000 512.000000"
 preserveAspectRatio="xMidYMid meet">

<g transform="translate(0.000000,512.000000) scale(0.100000,-0.100000)"
fill="#919191" stroke="none">
<path d="M1783 5055 c-268 -58 -427 -346 -332 -599 16 -44 57 -115 93 -161 5
-6 -159 -285 -439 -745 -245 -404 -450 -738 -453 -742 -4 -4 -38 -2 -75 4
-185 31 -386 -73 -471 -243 -68 -136 -69 -281 0 -417 61 -124 43 -111 1156
-785 153 -92 221 -117 320 -117 265 1 460 193 460 455 1 116 -29 202 -100 289
-13 16 -20 36 -17 45 5 12 260 436 270 449 2 2 533 -319 1181 -714 649 -394
1204 -729 1234 -743 77 -37 181 -36 261 1 205 94 258 354 108 520 -21 24 -171
121 -399 259 -419 254 -1309 795 -1738 1056 -161 98 -293 183 -294 188 0 6 60
110 133 232 l134 223 55 -7 c143 -19 263 10 361 85 219 166 245 479 58 677
-54 58 -51 55 -799 510 -403 245 -448 269 -530 285 -67 13 -100 12 -177 -5z
m183 -220 c52 -21 1123 -675 1160 -707 49 -43 77 -120 72 -193 -6 -71 -25
-111 -74 -159 -51 -49 -109 -69 -187 -64 -61 4 -70 8 -332 168 -149 90 -403
244 -565 343 -162 98 -310 193 -329 210 -93 87 -100 236 -15 336 59 70 186
101 270 66z m220 -950 c241 -147 440 -268 442 -270 2 -2 -803 -1333 -865
-1428 -23 -36 -26 -38 -46 -24 -12 8 -213 130 -447 272 -234 141 -427 259
-429 261 -7 7 885 1463 895 1460 6 -2 208 -124 450 -271z m1586 -1832 c731
-446 1051 -645 1062 -664 27 -47 21 -96 -18 -135 -38 -38 -85 -45 -135 -20
-15 8 -340 204 -722 437 -381 232 -905 550 -1164 707 -258 156 -473 288 -477
291 -7 6 23 60 98 178 14 22 15 21 161 -68 82 -49 619 -376 1195 -726z m-3169
533 c59 -25 1122 -675 1156 -707 48 -45 71 -102 71 -177 0 -138 -103 -242
-240 -242 -67 0 -90 11 -308 143 -103 63 -351 214 -552 336 -201 122 -376 232
-389 244 -38 35 -71 115 -71 175 0 137 105 242 242 242 32 0 73 -6 91 -14z"/>
<path d="M585 943 c-235 -32 -441 -213 -511 -448 -14 -48 -18 -98 -18 -250
l-1 -190 2028 -3 2027 -2 0 172 c0 201 -14 280 -65 384 -41 83 -132 187 -212
240 -31 21 -96 52 -143 68 l-85 31 -1495 1 c-822 1 -1508 -1 -1525 -3z m3077
-245 c144 -67 238 -222 238 -389 l0 -39 -1816 0 -1816 0 4 88 c3 67 10 99 31
142 49 103 126 173 230 211 50 18 110 18 1562 16 l1510 -2 57 -27z"/>
</g>
</svg>
