<svg xmlns="http://www.w3.org/2000/svg" viewBox="0 0 54 54" id="discord">
  <g>
    <path fill="#6487d7" d="M45.49,51.2l-9.74-12,2.71,2.43L11.8,41.49c-5.83,0-3.22-1.43-3.22-1.43V38.65l.12-24.54,0-6.18S7.46,3.65,11.83,2.87l-1.25,0H12L43.07,3h-.28c4.52.75,2.92,5.11,2.92,5.11ZM38.78,17.51c-.43-2.1-7.08-4.27-7.69-3.29.2.6,3.31.75,6.22,3.22-2.75-1.8-7-2-9.11-2.18l-.69.26h-.32V15h-.53c-2.08.13-6.28.59-9,2.37,2.93-2.44,6.08-2.57,6.29-3.17-.6-1-7.25,1.11-7.7,3.21,0,0-3.5,6.75-3,13.22,2,2.95,6.39,3.85,7.57,3.57a12,12,0,0,0,1.36-1.88s-3.28-2.16-4.09-3.66c1.75.93,3.34,1.95,8.64,2H28.1c5.3,0,6.95-1,8.7-1.89C36,30.25,32.72,32,32.72,32a7.64,7.64,0,0,0,1.34,2.08,9.15,9.15,0,0,0,7.6-3.4C42.22,24.21,38.78,17.51,38.78,17.51Z"></path>
    <path fill="#7289da" d="M20.52 25.64a2.46 2.46 0 012.56-2.7c1.6 0 2.36 1.87 2.35 2.73 0 .7-.78 2.71-2.38 2.7A2.47 2.47 0 0120.52 25.64zM34.26 25.71A2.47 2.47 0 0031.73 23c-1.6 0-2.38 1.85-2.38 2.71 0 .7.75 2.72 2.35 2.73A2.48 2.48 0 0034.26 25.71z"></path>
  </g>
</svg>
