<?xml version="1.0" encoding="UTF-8"?>
<svg version="1.1" xmlns="http://www.w3.org/2000/svg" width="512" height="512">
<path d="M0 0 C1.01247803 0.27408691 1.01247803 0.27408691 2.04541016 0.55371094 C32.31829414 8.88268602 61.01342228 28.59651721 77 56 C77.40943848 56.69963867 77.81887695 57.39927734 78.24072266 58.12011719 C84.66997596 69.30121891 89.58876157 80.56227976 93 93 C93.50853516 94.76150391 93.50853516 94.76150391 94.02734375 96.55859375 C98.38980524 114.9130976 98.21629674 138.90223765 93 157 C92.81727539 157.67498535 92.63455078 158.3499707 92.44628906 159.04541016 C84.11731398 189.31829414 64.40348279 218.01342228 37 234 C36.30036133 234.40943848 35.60072266 234.81887695 34.87988281 235.24072266 C23.69878109 241.66997596 12.43772024 246.58876157 0 250 C-1.17433594 250.33902344 -2.34867188 250.67804688 -3.55859375 251.02734375 C-21.9130976 255.38980524 -45.90223765 255.21629674 -64 250 C-64.67498535 249.81727539 -65.3499707 249.63455078 -66.04541016 249.44628906 C-96.31829414 241.11731398 -125.01342228 221.40348279 -141 194 C-141.40943848 193.30036133 -141.81887695 192.60072266 -142.24072266 191.87988281 C-148.66997596 180.69878109 -153.58876157 169.43772024 -157 157 C-157.33902344 155.82566406 -157.67804688 154.65132812 -158.02734375 153.44140625 C-162.38980524 135.0869024 -162.21629674 111.09776235 -157 93 C-156.72591309 91.98752197 -156.72591309 91.98752197 -156.44628906 90.95458984 C-148.11731398 60.68170586 -128.40348279 31.98657772 -101 16 C-99.95054199 15.38584229 -99.95054199 15.38584229 -98.87988281 14.75927734 C-87.69878109 8.33002404 -76.43772024 3.41123843 -64 0 C-62.82566406 -0.33902344 -61.65132813 -0.67804688 -60.44140625 -1.02734375 C-42.0869024 -5.38980524 -18.09776235 -5.21629674 0 0 Z M-82.2265625 85.59765625 C-93.90034153 100.79105779 -96.57052525 117.34082343 -95 136 C-92.56737404 152.13708903 -82.80370154 166.59387464 -69.94921875 176.3046875 C-54.55937453 187.21428291 -37.32307122 190.76039548 -18.63525391 187.60009766 C-1.66162774 183.86027328 12.43289707 173.05323028 22.24609375 158.8984375 C31.18821388 144.12103631 33.73583359 126.39619609 30.1953125 109.5 C25.67556263 92.08689367 14.13633437 78.15478011 -1.1875 69.0546875 C-28.99259957 53.54251873 -62.01580615 62.01844051 -82.2265625 85.59765625 Z " fill="#ccc" transform="translate(288,3)"/>
<path d="M0 0 C5.27504673 1.17223261 10.39420951 2.35139646 15.57641602 3.80200195 C48.50296488 12.90532715 81.80361447 12.37315709 114.6328125 3.18359375 C119.05368522 1.98545025 123.52871549 0.99361878 128 0 C128 67.32 128 134.64 128 204 C123.50626679 200.14822868 119.21478349 196.35824162 115.06469727 192.17822266 C114.51747513 191.63114655 113.97025299 191.08407043 113.40644836 190.52041626 C111.62404947 188.73732867 109.84520477 186.95074117 108.06640625 185.1640625 C106.82109655 183.9168849 105.57556379 182.66992999 104.32981873 181.42318726 C101.07094634 178.16051895 97.81508982 174.89485749 94.55987549 171.62854004 C91.22990221 168.28828938 87.89705327 164.95091069 84.56445312 161.61328125 C78.04016861 155.07831107 71.51907004 148.54017169 65 142 C60.86518284 143.62909867 58.11010159 146.62959347 55.05395508 149.73486328 C54.46976303 150.32036957 53.88557098 150.90587585 53.28367615 151.50912476 C51.35765315 153.44162885 49.43870092 155.38100433 47.51953125 157.3203125 C46.18293815 158.66317583 44.84582871 160.00552542 43.50822449 161.34738159 C39.99118736 164.87771547 36.47976391 168.41357619 32.96990967 171.9510498 C27.3422011 177.62190515 21.7077153 183.28600786 16.07004356 188.94695663 C14.09719454 190.93007031 12.12776879 192.91653839 10.15864563 194.90335083 C8.95849784 196.11032215 7.75824238 197.31718644 6.55786133 198.52392578 C5.73111404 199.36077911 5.73111404 199.36077911 4.88766479 200.21453857 C3.61063228 201.49543875 2.30808628 202.75082924 1 204 C0.67 204 0.34 204 0 204 C0 136.68 0 69.36 0 0 Z " fill="#ccc" transform="translate(192,308)"/>
</svg>
